
        <svg xmlns="http://www.w3.org/2000/svg" xmlns:xlink="http://www.w3.org/1999/xlink" version="1.1" width="3171.4285714285716" height="1507.4062580341074" viewBox="0 0 3171.4285714285716 1507.4062580341074">
			
			<g transform="scale(8.571428571428571) translate(10, 10)">
				<defs id="SvgjsDefs2538"><linearGradient id="SvgjsLinearGradient2545"><stop id="SvgjsStop2546" stop-color="#905e26" offset="0"/><stop id="SvgjsStop2547" stop-color="#f5ec9b" offset="0.5"/><stop id="SvgjsStop2548" stop-color="#905e26" offset="1"/></linearGradient><linearGradient id="SvgjsLinearGradient2549"><stop id="SvgjsStop2550" stop-color="#905e26" offset="0"/><stop id="SvgjsStop2551" stop-color="#f5ec9b" offset="0.5"/><stop id="SvgjsStop2552" stop-color="#905e26" offset="1"/></linearGradient><linearGradient id="SvgjsLinearGradient2553"><stop id="SvgjsStop2554" stop-color="#905e26" offset="0"/><stop id="SvgjsStop2555" stop-color="#f5ec9b" offset="0.5"/><stop id="SvgjsStop2556" stop-color="#905e26" offset="1"/></linearGradient></defs><g id="SvgjsG2539" featureKey="symbolFeature-0" transform="matrix(0.34228578209877014,0,0,0.34228578209877014,108.38446802746118,-22.432715973591275)" fill="#000"><path xmlns="http://www.w3.org/2000/svg" a:adobe-knockout="false" xmlns:a="http://ns.adobe.com/AdobeSVGViewerExtensions/3.0/" d="M97.525,109.331l2.974-3.296c6.748-6.807,7.151-7.214,11.826-11.134     c2.631-2.064,6.17-4.778,8.888-6.729c17.951-12.38,42.964-21.189,67.617-22.474c3.697-0.192,7.256-0.209,10.661-0.063l0.95,0.046     c8.825,0.689,9.354,0.73,14.713,1.614c9.464,1.888,10.028,1.998,15.655,3.674c-9.965-3.006-22.103-4.361-35.867-3.644     C156.394,69.335,117.094,86.968,97.525,109.331"/><path xmlns="http://www.w3.org/2000/svg" a:adobe-knockout="false" xmlns:a="http://ns.adobe.com/AdobeSVGViewerExtensions/3.0/" d="M69.501,163.724l2.021-7.443c1.329-3.848,3.1-8.986,4.63-12.758l0.674-1.56     c15.141-34.348,71.952-64.401,127.459-67.293c26.144-1.362,47.364,3.542,61.044,12.691l6.584,4.746     c3.434,2.851,7.979,6.698,11.24,9.745C269.246,88.4,243.377,80.768,210.153,82.5c-60.384,3.147-122.196,36.038-138.062,73.462     C70.973,158.602,70.113,161.189,69.501,163.724"/><path xmlns="http://www.w3.org/2000/svg" a:adobe-knockout="false" xmlns:a="http://ns.adobe.com/AdobeSVGViewerExtensions/3.0/" d="M68.891,220.21c-0.813-4.66-1.851-10.889-2.375-15.59l-0.419-6.647     c-0.224-6.202,1.058-12.827,3.997-19.76c17.07-40.266,83.574-75.653,148.543-79.04c42.602-2.219,73.965,9.873,85.695,29.813     c6.049,11.404,6.541,12.336,9.576,20.417c-8.801-23.918-42.652-38.976-90.279-36.495     c-66.251,3.452-134.069,39.539-151.476,80.601C68.094,203.082,67.135,212.081,68.891,220.21"/><path xmlns="http://www.w3.org/2000/svg" a:adobe-knockout="false" xmlns:a="http://ns.adobe.com/AdobeSVGViewerExtensions/3.0/" d="M92.813,271.626c-7.364-10.301-7.965-11.143-11.981-18.586     c-5.477-10.262-5.922-22.479-0.262-35.826c17.182-40.531,84.125-76.154,149.522-79.56c53.184-2.772,88.967,16.613,91.234,45.75     c0.137,3.502,0.402,8.168,0.379,11.67c-0.17,3.192-0.287,7.455-0.592,10.637c3.164-31.788-32.625-53.73-87.91-50.85     c-63.073,3.286-127.639,37.642-144.21,76.733C82.489,246.935,84.344,260.728,92.813,271.626"/><path xmlns="http://www.w3.org/2000/svg" a:adobe-knockout="false" xmlns:a="http://ns.adobe.com/AdobeSVGViewerExtensions/3.0/" d="M138.141,308.339l-1.272-0.625c-9.498-5.146-11.208-6.073-19.119-11.712     c-14.395-10.624-19.502-26.277-11.865-44.292c14.988-35.355,73.379-66.426,130.423-69.398     c56.316-2.934,90.262,22.611,76.697,57.281l-1.432,3.529c-5.064,10.84-5.369,11.489-9.361,17.986     c1.588-2.523,2.938-5.081,4.035-7.666c13.582-32.041-17.316-55.833-69.018-53.139c-51.698,2.695-104.621,30.854-118.205,62.897     C110.784,282.642,118.919,299.047,138.141,308.339"/><path xmlns="http://www.w3.org/2000/svg" a:adobe-knockout="false" xmlns:a="http://ns.adobe.com/AdobeSVGViewerExtensions/3.0/" d="M203.519,320.49c33.849-1.764,68.495-20.201,77.39-41.179     c8.895-20.979-11.336-36.553-45.184-34.789c-33.849,1.764-68.497,20.201-77.391,41.179     C149.441,306.679,169.671,322.255,203.519,320.49c-0.983,0.257-1.973,0.411-2.967,0.463c-8.32,0.227-8.646,0.237-13.268,0.01     c-2.216-0.176-5.176-0.358-7.385-0.594c-30.642-3.323-47.16-20.407-37.89-42.273c10.914-25.743,53.429-48.367,94.965-50.532     c41.535-2.164,66.359,16.951,55.445,42.693c-3.455,8.148-10.078,15.985-18.83,22.959c-2.738,2.07-6.428,4.782-9.254,6.727     c-6.793,4.263-6.793,4.263-10.469,6.225c-6.666,3.362-6.666,3.362-10.117,4.828c-6.504,2.603-6.504,2.603-10.041,3.775     c-3.322,1.016-9.504,2.903-10.275,2.903c-6.993,1.504-7.267,1.562-10.89,2.09c-7.553,0.933-7.848,0.971-11.992,1.189     C201.546,320.901,202.535,320.747,203.519,320.49"/><path xmlns="http://www.w3.org/2000/svg" a:adobe-knockout="false" xmlns:a="http://ns.adobe.com/AdobeSVGViewerExtensions/3.0/" d="M218.023,308.125c11.248-0.586,22.766-6.713,25.721-13.686     s-3.768-12.148-15.018-11.562c-11.25,0.587-22.767,6.714-25.722,13.687C200.049,303.535,206.772,308.712,218.023,308.125     c-1.771,2.74-3.607,5.031-5.493,6.887c-20.602,1.075-32.915-8.405-27.502-21.174c5.414-12.769,26.502-23.991,47.104-25.065     c20.602-1.072,32.916,8.407,27.502,21.176c-5.412,12.769-26.502,23.99-47.104,25.063     C214.416,313.156,216.253,310.865,218.023,308.125"/></g><g id="SvgjsG2540" featureKey="nameFeature-0" transform="matrix(0.8238570094108582,0,0,0.8238570094108582,-1.5158971561665866,96.09213470401474)" fill="#000"><path d="M7.88 18.6 l-5.68 0 c-0.2 0 -0.36 -0.16 -0.36 -0.36 l0 -4.28 c0 -0.2 0.16 -0.36 0.36 -0.36 l16.68 0 c0.2 0 0.36 0.16 0.36 0.36 l0 4.28 c0 0.2 -0.16 0.36 -0.36 0.36 l-5.68 0 l0 21.04 c0 0.2 -0.16 0.36 -0.36 0.36 l-4.6 0 c-0.2 0 -0.36 -0.16 -0.36 -0.36 l0 -21.04 z M16.44 15.8 l-12.08 0 c-0.28 0 -0.28 0.52 0 0.52 l5.92 0 l0 21.2 c0 0.28 0.52 0.28 0.52 0 l0 -21.2 l5.64 0 c0.4 0 0.36 -0.52 0 -0.52 z M40.589 29.560000000000002 c-0.56 1.16 -1.36 2.04 -2.48 2.56 l3.36 7.4 c0.12 0.24 -0.04 0.48 -0.28 0.48 l-4.92 0 c-0.16 0 -0.24 -0.08 -0.28 -0.2 l-3.12 -6.8 l-2.04 0 l0 6.64 c0 0.2 -0.16 0.36 -0.36 0.36 l-4.6 0 c-0.16 0 -0.28 -0.16 -0.28 -0.36 l0 -25.68 c0 -0.2 0.12 -0.36 0.28 -0.36 l8.32 0 c4.44 0 7.12 2.52 7.12 7.2 l0 5.04 c0 1.4 -0.24 2.72 -0.72 3.72 z M36.069 24.6 l0 -2.6 c0 -2.8 -1.04 -3.08 -4.08 -3.08 l-1.16 0 l0 8.84 l1.16 0 c2.52 0 4 -0.04 4.08 -3.16 z M28.509 37.56 l0 -6.84 l5.76 0 l3.36 6.92 c0.08 0.2 0.56 0.12 0.44 -0.24 l-3.36 -6.8 c3.12 -0.44 4.2 -2.08 4.2 -5.04 l0 -5 c0 -4.4 -4 -4.76 -5.24 -4.76 l-5.4 0 c-0.08 0 -0.24 0.12 -0.24 0.24 l0 21.52 c0 0.28 0.48 0.28 0.48 0 z M38.429 20.56 l0 5 c0 4.08 -2.6 4.64 -5.12 4.64 l-4.8 0 l0 -13.88 l5.16 0 c4.32 0 4.76 2.92 4.76 4.24 z M61.858000000000004 30.759999999999998 l0 -16.8 c0 -0.2 0.16 -0.36 0.36 -0.36 l4.56 0 c0.2 0 0.36 0.16 0.36 0.36 l0 18.08 c0 5.76 -3.16 8.36 -9.12 8.36 c-5.64 0 -9.16 -2.24 -9.16 -8.36 l0 -18.08 c0 -0.2 0.16 -0.36 0.36 -0.36 l4.6 0 c0.2 0 0.36 0.16 0.36 0.36 l0 16.8 c0 3.48 1.96 4.24 3.6 4.24 l0.48 0 c2.48 0 3.6 -1.68 3.6 -4.24 z M51.338 16.16 l0 15.56 c0 3.6 2.44 6.2 6.24 6.2 l1 0 c3.8 0 6.28 -2.72 6.28 -6.2 l0 -15.56 c0 -0.36 -0.48 -0.4 -0.48 0 l0 15.56 c0 3.28 -2.36 5.68 -5.8 5.68 l-1 0 c-3.36 0 -5.76 -2.16 -5.76 -5.68 l0 -15.56 c0 -0.36 -0.48 -0.36 -0.48 0 z M75.407 40 c-0.2 0 -0.32 -0.16 -0.32 -0.36 l0 -25.68 c0 -0.2 0.12 -0.36 0.32 -0.36 l13.6 0 c0.2 0 0.36 0.16 0.36 0.36 l0 4.28 c0 0.2 -0.16 0.36 -0.36 0.36 l-8.64 0 l0 5.44 l6.72 0 c0.2 0 0.32 0.16 0.32 0.36 l0 4.36 c0 0.2 -0.12 0.36 -0.32 0.36 l-6.72 0 l0 5.88 l8.64 0 c0.2 0 0.36 0.16 0.36 0.36 l0 4.28 c0 0.2 -0.16 0.36 -0.36 0.36 l-13.6 0 z M77.407 16.12 l0 21.28 c0 0.24 0.16 0.32 0.32 0.32 l9.2 0 c0.36 0 0.28 -0.48 0 -0.48 l-9 0 l0 -10.44 l7.36 0 c0.24 0 0.24 -0.56 0 -0.56 l-7.36 0 l0 -9.92 l9 0 c0.28 0 0.36 -0.52 0 -0.52 l-9.2 0 c-0.16 0 -0.32 0.12 -0.32 0.32 z M121.265 13.239999999999998 c3.44 0 5.84 0.76 7.36 2.4 c1.2 1.32 1.76 3.2 1.76 5.88 l0 10.52 c0 2.76 -0.56 4.68 -1.76 5.96 c-1.56 1.6 -3.92 2.4 -7.36 2.4 c-3.56 0 -5.88 -0.8 -7.4 -2.4 c-1.16 -1.28 -1.8 -3.2 -1.8 -5.96 l0 -10.52 c0 -2.68 0.64 -4.56 1.8 -5.92 c1.56 -1.6 3.92 -2.36 7.4 -2.36 z M125.065 30.84 l0 -8 c0 -3.52 -1.88 -4.24 -3.6 -4.24 l-0.48 0 c-2.56 0 -3.56 1.64 -3.56 4.24 l0 8 c0 3.52 1.88 4.28 3.56 4.28 l0.48 0 c2.56 0 3.56 -1.72 3.6 -4.28 z M114.58500000000001 21.8 l0 9.92 c0 1.88 0.48 3.44 1.6 4.6 c1.04 1.04 2.64 1.6 4.6 1.6 l1.04 0 c3.76 0 6.2 -2.4 6.2 -6.2 l0 -9.92 c0 -4.08 -2.16 -6.28 -6.2 -6.28 l-1.04 0 c-4.08 0 -6.2 2.2 -6.2 6.28 z M121.825 37.4 l-1.04 0 c-1.88 0 -3.28 -0.48 -4.28 -1.48 s-1.52 -2.4 -1.52 -4.2 l0 -9.92 c0 -3.8 2.04 -5.8 5.8 -5.8 l1.04 0 c3.8 0 5.68 1.96 5.68 5.8 l0 9.92 c0 1.68 -0.52 3.2 -1.6 4.24 c-1.04 0.88 -2.44 1.44 -4.08 1.44 z M153.134 29.560000000000002 c-0.56 1.16 -1.36 2.04 -2.48 2.56 l3.36 7.4 c0.12 0.24 -0.04 0.48 -0.28 0.48 l-4.92 0 c-0.16 0 -0.24 -0.08 -0.28 -0.2 l-3.12 -6.8 l-2.04 0 l0 6.64 c0 0.2 -0.16 0.36 -0.36 0.36 l-4.6 0 c-0.16 0 -0.28 -0.16 -0.28 -0.36 l0 -25.68 c0 -0.2 0.12 -0.36 0.28 -0.36 l8.32 0 c4.44 0 7.12 2.52 7.12 7.2 l0 5.04 c0 1.4 -0.24 2.72 -0.72 3.72 z M148.614 24.6 l0 -2.6 c0 -2.8 -1.04 -3.08 -4.08 -3.08 l-1.16 0 l0 8.84 l1.16 0 c2.52 0 4 -0.04 4.08 -3.16 z M141.054 37.56 l0 -6.84 l5.76 0 l3.36 6.92 c0.08 0.2 0.56 0.12 0.44 -0.24 l-3.36 -6.8 c3.12 -0.44 4.2 -2.08 4.2 -5.04 l0 -5 c0 -4.4 -4 -4.76 -5.24 -4.76 l-5.4 0 c-0.08 0 -0.24 0.12 -0.24 0.24 l0 21.52 c0 0.28 0.48 0.28 0.48 0 z M150.974 20.56 l0 5 c0 4.08 -2.6 4.64 -5.12 4.64 l-4.8 0 l0 -13.88 l5.16 0 c4.32 0 4.76 2.92 4.76 4.24 z M176.763 20.44 c0 1.56 -0.24 2.92 -0.8 3.92 c1.52 1.44 2.16 3.76 2.16 7 c0 3.44 -0.72 5.88 -2.36 7.16 c-1.56 1.24 -3.76 1.48 -5.96 1.48 l-7.8 0 c-0.2 0 -0.32 -0.16 -0.32 -0.36 l0 -25.68 c0 -0.2 0.12 -0.36 0.32 -0.36 l6.4 0 c2.16 0 4.4 0.16 5.92 1.16 c1.88 1.2 2.44 3.36 2.44 5.68 z M166.963 18.84 l0 3.6 l2.44 0 c1.28 0 1.96 -0.4 1.96 -1.8 s-1.04 -1.8 -2.8 -1.8 l-1.6 0 z M168.483 34.76 c2.2 0 4.28 -0.96 4.28 -3.52 c0 -1.92 -1.36 -3.44 -3.4 -3.44 l-2.4 0 l0 6.96 l1.52 0 z M164.00300000000001 16.12 l0 21.32 c0 0.2 0.16 0.28 0.32 0.28 l5.36 0 c3.88 0 6.2 -1.96 6.2 -6.16 c0 -3 -0.68 -6.12 -3.8 -7 c1.84 -0.6 2.32 -2.44 2.32 -4.4 c0 -3.2 -1.8 -4.36 -5.04 -4.36 l-5.04 0 c-0.24 0 -0.32 0.12 -0.32 0.32 z M169.083 37.24 l-4.56 0 l0 -12.32 l5.64 0 c4.12 0 5.16 2.68 5.16 6.64 c0 4.04 -2.2 5.84 -6.24 5.68 z M173.923 20.16 c0 3.24 -1.36 4.24 -4.64 4.24 l-4.76 0 l0 -8.08 l4.84 0 c2.36 0 4.56 0.44 4.56 3.84 z M185.752 40 c-0.2 0 -0.32 -0.16 -0.32 -0.36 l0 -25.68 c0 -0.2 0.12 -0.36 0.32 -0.36 l4.56 0 c0.2 0 0.36 0.16 0.36 0.36 l0 25.68 c0 0.2 -0.16 0.36 -0.36 0.36 l-4.56 0 z M187.832 16 l0 21.56 c0 0.36 0.44 0.36 0.44 0 l0 -21.56 c0 -0.28 -0.44 -0.28 -0.44 0 z M202.90099999999998 18.6 l-5.68 0 c-0.2 0 -0.36 -0.16 -0.36 -0.36 l0 -4.28 c0 -0.2 0.16 -0.36 0.36 -0.36 l16.68 0 c0.2 0 0.36 0.16 0.36 0.36 l0 4.28 c0 0.2 -0.16 0.36 -0.36 0.36 l-5.68 0 l0 21.04 c0 0.2 -0.16 0.36 -0.36 0.36 l-4.6 0 c-0.2 0 -0.36 -0.16 -0.36 -0.36 l0 -21.04 z M211.46099999999998 15.8 l-12.08 0 c-0.28 0 -0.28 0.52 0 0.52 l5.92 0 l0 21.2 c0 0.28 0.52 0.28 0.52 0 l0 -21.2 l5.64 0 c0.4 0 0.36 -0.52 0 -0.52 z M241.319 13.84 c0.04 -0.12 0.12 -0.24 0.28 -0.24 l4.96 0 c0.16 0 0.24 0.12 0.28 0.24 l6.92 25.72 c0.04 0.24 -0.12 0.44 -0.36 0.44 l-4.56 0 c-0.12 0 -0.24 -0.08 -0.28 -0.24 l-1.56 -5.6 l-5.84 0 l-1.52 5.6 c-0.04 0.16 -0.12 0.24 -0.28 0.24 l-4.6 0 c-0.24 0 -0.4 -0.2 -0.36 -0.44 z M242.439 29.2 l3.32 0 l-1.72 -6.04 z M248.599 31.560000000000002 l1.84 6 c0.08 0.24 0.52 0.2 0.4 -0.12 l-6.4 -21.28 c-0.12 -0.52 -0.8 -0.56 -0.92 0 l-6.2 21.28 c-0.12 0.28 0.32 0.4 0.44 0.16 l1.76 -6.04 l9.08 0 z M239.639 31.04 l4.36 -14.72 l4.44 14.72 l-8.8 0 z M271.028 13.96 c0 -0.2 0.16 -0.36 0.36 -0.36 l4.6 0 c0.2 0 0.36 0.16 0.36 0.36 l0 25.68 c0 0.2 -0.16 0.36 -0.36 0.36 l-4.44 0 c-0.16 0 -0.32 -0.08 -0.36 -0.2 l-5.84 -13.16 l0 13 c0 0.2 -0.16 0.36 -0.36 0.36 l-4.56 0 c-0.2 0 -0.32 -0.16 -0.32 -0.36 l0 -25.68 c0 -0.2 0.12 -0.36 0.32 -0.36 l4.72 0 c0.16 0 0.24 0.12 0.28 0.2 l5.6 12.92 l0 -12.76 z M273.908 37.6 l0 -21.6 c0 -0.28 -0.52 -0.36 -0.52 0 l0 20.56 l-10.44 -20.64 c-0.12 -0.16 -0.44 -0.16 -0.44 0.08 l0 21.56 c0 0.36 0.48 0.36 0.48 0 l0 -20.52 l10.4 20.6 c0.16 0.28 0.52 0.2 0.52 -0.04 z M289.617 13.84 c0.04 -0.12 0.12 -0.24 0.28 -0.24 l4.96 0 c0.16 0 0.24 0.12 0.28 0.24 l6.92 25.72 c0.04 0.24 -0.12 0.44 -0.36 0.44 l-4.56 0 c-0.12 0 -0.24 -0.08 -0.28 -0.24 l-1.56 -5.6 l-5.84 0 l-1.52 5.6 c-0.04 0.16 -0.12 0.24 -0.28 0.24 l-4.6 0 c-0.24 0 -0.4 -0.2 -0.36 -0.44 z M290.737 29.2 l3.32 0 l-1.72 -6.04 z M296.89700000000005 31.560000000000002 l1.84 6 c0.08 0.24 0.52 0.2 0.4 -0.12 l-6.4 -21.28 c-0.12 -0.52 -0.8 -0.56 -0.92 0 l-6.2 21.28 c-0.12 0.28 0.32 0.4 0.44 0.16 l1.76 -6.04 l9.08 0 z M287.937 31.04 l4.36 -14.72 l4.44 14.72 l-8.8 0 z M313.286 13.600000000000001 c0.2 0 0.36 0.16 0.36 0.36 l0 21 l8.64 0 c0.2 0 0.36 0.16 0.36 0.36 l0 4.32 c0 0.2 -0.16 0.36 -0.36 0.36 l-13.56 0 c-0.2 0 -0.32 -0.16 -0.32 -0.36 l0 -25.68 c0 -0.2 0.12 -0.36 0.32 -0.36 l4.56 0 z M310.80600000000004 16.04 l0 21.52 c0 0.08 0.08 0.2 0.24 0.2 l9.24 0 c0.32 0 0.32 -0.52 0 -0.52 l-9.04 0 l0 -21.2 c0 -0.28 -0.44 -0.32 -0.44 0 z M331.995 13.8 l3.48 6.72 l3.4 -6.72 c0.12 -0.2 0.16 -0.2 0.32 -0.2 l4.48 0 c0.24 0 0.4 0.24 0.32 0.44 l-5.8 13.48 l0 12.12 c0 0.2 -0.16 0.36 -0.36 0.36 l-4.72 0 c-0.12 0 -0.28 -0.16 -0.28 -0.36 l0 -12.12 l-5.96 -13.4 c-0.08 -0.28 0.04 -0.52 0.32 -0.52 l4.48 0 c0.16 0 0.2 0 0.32 0.2 z M335.675 26.6 l5 -10.4 c0.12 -0.24 -0.28 -0.44 -0.44 -0.16 l-4.76 9.96 l-4.88 -9.96 c-0.16 -0.28 -0.6 -0.08 -0.48 0.2 l5.12 10.36 l0 11.04 c0 0.28 0.44 0.32 0.44 0 l0 -11.04 z M354.30400000000003 18.6 l-5.68 0 c-0.2 0 -0.36 -0.16 -0.36 -0.36 l0 -4.28 c0 -0.2 0.16 -0.36 0.36 -0.36 l16.68 0 c0.2 0 0.36 0.16 0.36 0.36 l0 4.28 c0 0.2 -0.16 0.36 -0.36 0.36 l-5.68 0 l0 21.04 c0 0.2 -0.16 0.36 -0.36 0.36 l-4.6 0 c-0.2 0 -0.36 -0.16 -0.36 -0.36 l0 -21.04 z M362.86400000000003 15.8 l-12.08 0 c-0.28 0 -0.28 0.52 0 0.52 l5.92 0 l0 21.2 c0 0.28 0.52 0.28 0.52 0 l0 -21.2 l5.64 0 c0.4 0 0.36 -0.52 0 -0.52 z M372.333 40 c-0.2 0 -0.32 -0.16 -0.32 -0.36 l0 -25.68 c0 -0.2 0.12 -0.36 0.32 -0.36 l4.56 0 c0.2 0 0.36 0.16 0.36 0.36 l0 25.68 c0 0.2 -0.16 0.36 -0.36 0.36 l-4.56 0 z M374.41300000000007 16 l0 21.56 c0 0.36 0.44 0.36 0.44 0 l0 -21.56 c0 -0.28 -0.44 -0.28 -0.44 0 z M397.88200000000006 30.759999999999998 l0 -1.24 c0 -0.2 0.16 -0.36 0.36 -0.36 l4.56 0 c0.2 0 0.36 0.16 0.36 0.36 l0 2.52 c0 5.88 -3.16 8.36 -9.12 8.36 c-5.56 0 -9.2 -2.2 -9.2 -8.36 l0 -10.52 c0 -5.92 3.24 -8.28 9.2 -8.28 c5.64 0 9.12 2.16 9.12 8.28 l0 0.84 c0 0.2 -0.16 0.36 -0.36 0.36 l-4.6 0 c-0.2 0 -0.36 -0.16 -0.36 -0.36 l0 -0.64 c0 -2.2 -1.64 -3.12 -3.6 -3.12 l-0.48 0 c-1.32 0 -2.2 0.36 -2.8 1.16 c-0.56 0.76 -0.76 1.76 -0.76 3.08 l0 7.92 c0 3.48 1.96 4.24 3.56 4.24 l0.48 0 c2.52 0 3.56 -1.68 3.64 -4.24 z M393.96200000000005 15.719999999999999 c-4.28 0 -6.76 1.52 -6.76 6.4 l0 9.64 c0 4.44 2.28 6.08 6.76 6.08 c4.2 0 6.72 -1.52 6.72 -6.12 c0 -0.32 -0.48 -0.32 -0.48 0 c0 4.04 -2.2 5.68 -6.24 5.68 c-3.92 0 -6.32 -1.36 -6.32 -5.64 l0 -9.64 c0 -4.16 1.96 -5.96 6.32 -5.96 c5.68 0 5.88 3.6 5.88 4 c0 0.36 0.56 0.4 0.56 0 c0 -3.32 -3.36 -4.44 -6.44 -4.44 z M419.67100000000005 23.8 c3.04 1.44 7 3.72 7 7.84 c0 1.2 -0.2 3.52 -1.52 5.48 c-1.48 2.2 -3.8 3.28 -7 3.28 c-3.4 0 -7.36 -1.64 -8.6 -5.36 c-0.04 -0.12 0 -0.24 0.12 -0.32 l3.68 -3.16 c0.16 -0.12 0.4 -0.12 0.52 0.08 c0.08 0.2 0.24 0.52 0.44 0.92 c0.6 1.24 2.04 2.48 3.64 2.48 c1.24 0 2.92 -0.68 2.92 -2.6 c0 -1.84 -2.52 -2.88 -4.08 -3.48 c-1.8 -0.72 -3.64 -1.64 -5.2 -3 c-1.64 -1.52 -2.44 -3.2 -2.44 -5.2 c0 -5 4.6 -7.52 8.96 -7.52 c3.44 0 6 1.8 7.68 5.36 c0.08 0.16 0 0.36 -0.12 0.44 l-3.56 2.48 c-0.16 0.08 -0.24 0.08 -0.4 -0.12 c-1.36 -1.96 -2.56 -2.88 -4.16 -2.88 c-0.84 0 -2.8 0.32 -2.8 1.8 c0 1.8 3.32 2.72 4.92 3.48 z M412.3910000000001 34.84 c1 2 3.76 3.16 6 3.16 c2.92 0 5.28 -2 5.6 -5.04 c0.4 -3.72 -2.52 -5.32 -5.4 -6.76 l-1.28 -0.56 c-2.96 -1.32 -5.12 -2.32 -5.12 -5.08 c0 -3.04 2.8 -4.44 5.56 -4.44 c2.52 0 3.84 1.48 4.52 2.4 c0.24 0.32 0.64 0.04 0.4 -0.28 c-0.68 -0.84 -2.12 -2.6 -4.92 -2.6 c-3.16 0 -6.04 1.56 -6.04 4.92 c0 3 2.4 4.16 5.44 5.56 l1.24 0.6 c3.96 1.88 5.4 3.64 5.08 6.2 c-0.6 4.08 -3.72 4.6 -5.08 4.6 c-3 0 -5 -1.8 -5.6 -2.92 c-0.2 -0.2 -0.48 0 -0.4 0.24 z"/></g><g id="SvgjsG2541" featureKey="sloganFeature-0" transform="matrix(1.1007846593856812,0,0,1.1007846593856812,34.933952590731856,133.65022900419916)" fill="#000"><path d="M8.14 20 l-1.1 -4.42 l-4.88 0 l-1.1 4.42 l-1 0 l4.14 -15 l0.86 0 l4.12 15 l-1.04 0 z M4.66 5.9399999999999995 l-2.26 8.68 l4.38 0 z M18.6185 16.22 c-0.01334 0.66666 -0.076582 1.25 -0.18992 1.75 s-0.30668 0.91334 -0.58002 1.24 s-0.63334 0.57 -1.08 0.73 s-1.01 0.24 -1.69 0.24 c-1.1733 0 -2.0266 -0.32666 -2.56 -0.98 s-0.8 -1.6467 -0.8 -2.98 l0 -7.4 c0 -1.3333 0.27 -2.3266 0.81 -2.98 s1.4633 -0.98 2.77 -0.98 c1.1733 0 2.0134 0.32666 2.52 0.98 s0.77332 1.6467 0.79998 2.98 l0.02 0.92 l-0.92 0 l-0.02 -1.16 c0 -0.33334 -0.03334 -0.67 -0.1 -1.01 s-0.18666 -0.65 -0.36 -0.93 s-0.41668 -0.50666 -0.73002 -0.68 s-0.73 -0.26 -1.25 -0.26 c-0.50666 0 -0.93 0.08 -1.27 0.24 s-0.61 0.38 -0.81 0.66 s-0.33666 0.61 -0.41 0.99 s-0.11 0.79 -0.11 1.23 l0.04 7.5 c0 0.92 0.17 1.64 0.51 2.16 s0.96334 0.78 1.87 0.78 c0.52 0 0.95 -0.07 1.29 -0.21 s0.60666 -0.33666 0.8 -0.59 s0.33 -0.56 0.41 -0.92 s0.12 -0.75334 0.12 -1.18 l0.02 -1.3 l0.92 0 z M29.197 16.22 c-0.01334 0.66666 -0.076582 1.25 -0.18992 1.75 s-0.30668 0.91334 -0.58002 1.24 s-0.63334 0.57 -1.08 0.73 s-1.01 0.24 -1.69 0.24 c-1.1733 0 -2.0266 -0.32666 -2.56 -0.98 s-0.8 -1.6467 -0.8 -2.98 l0 -7.4 c0 -1.3333 0.27 -2.3266 0.81 -2.98 s1.4633 -0.98 2.77 -0.98 c1.1733 0 2.0134 0.32666 2.52 0.98 s0.77332 1.6467 0.79998 2.98 l0.02 0.92 l-0.92 0 l-0.02 -1.16 c0 -0.33334 -0.03334 -0.67 -0.1 -1.01 s-0.18666 -0.65 -0.36 -0.93 s-0.41668 -0.50666 -0.73002 -0.68 s-0.73 -0.26 -1.25 -0.26 c-0.50666 0 -0.93 0.08 -1.27 0.24 s-0.61 0.38 -0.81 0.66 s-0.33666 0.61 -0.41 0.99 s-0.11 0.79 -0.11 1.23 l0.04 7.5 c0 0.92 0.17 1.64 0.51 2.16 s0.96334 0.78 1.87 0.78 c0.52 0 0.95 -0.07 1.29 -0.21 s0.60666 -0.33666 0.8 -0.59 s0.33 -0.56 0.41 -0.92 s0.12 -0.75334 0.12 -1.18 l0.02 -1.3 l0.92 0 z M33.1555 20 l0 -15 l7.36 0 l0 1.16 l-6.32 0 l0 5.7 l6.26 0 l0 0.92 l-6.26 0 l0 6.06 l6.46 0 l0 1.16 l-7.5 0 z M44.194 20 l0 -15 l1.08 0 l0 13.92 l5.1 0 l0 1.08 l-6.18 0 z M53.6325 20 l0 -15 l7.36 0 l0 1.16 l-6.32 0 l0 5.7 l6.26 0 l0 0.92 l-6.26 0 l0 6.06 l6.46 0 l0 1.16 l-7.5 0 z M71.71100000000001 20 l-3.3 -6.22 l-3.06 0 l0 6.22 l-0.98 0 l0 -15 l3.4 0 c0.78666 0 1.46 0.11666 2.02 0.35 s1.02 0.55 1.38 0.95 s0.62666 0.86334 0.8 1.39 s0.26 1.0767 0.26 1.65 c0 0.97334 -0.25 1.85 -0.75 2.63 s-1.1567 1.35 -1.97 1.71 l3.52 6.32 l-1.32 0 z M67.63100000000001 5.92 l-2.28 -0.000019531 l0 6.84 l2.42 0 c0.68 0 1.24 -0.10334 1.68 -0.31 s0.78334 -0.47332 1.03 -0.79998 s0.42 -0.7 0.52 -1.12 s0.15 -0.85 0.15 -1.29 c0 -0.46666 -0.08 -0.9 -0.24 -1.3 s-0.39 -0.75 -0.69 -1.05 s-0.66666 -0.53666 -1.1 -0.71 s-0.93 -0.26 -1.49 -0.26 z M84.10950000000001 20 l-1.1 -4.42 l-4.88 0 l-1.1 4.42 l-1 0 l4.14 -15 l0.86 0 l4.12 15 l-1.04 0 z M80.62950000000001 5.9399999999999995 l-2.26 8.68 l4.38 0 z M90.70800000000001 6.1 l0 13.9 l-1.16 0 l0 -13.9 l-3.26 0 l0 -1.1 l7.68 0 l0 1.1 l-3.26 0 z M97.2065 20 l0 -15 l7.36 0 l0 1.16 l-6.32 0 l0 5.7 l6.26 0 l0 0.92 l-6.26 0 l0 6.06 l6.46 0 l0 1.16 l-7.5 0 z M124.54350000000001 20 l-0.98 0 l-2.74 -13.4 l-2.72 13.4 l-0.96 0 l-3.44 -15 l1.06 0 l2.74 13.08 l3.02 -13.08 l0.64 0 l3 13.08 l2.74 -13.08 l1.08 0 z M131.502 20 l0 -15 l1.28 0 l0 15 l-1.28 0 z M140.8005 6.1 l0 13.9 l-1.16 0 l0 -13.9 l-3.26 0 l0 -1.1 l7.68 0 l0 1.1 l-3.26 0 z M153.679 20 l-0.02 -6.98 l-5.48 0 l0.02 6.98 l-1.16 0 l0 -15 l1.16 0 l-0.02 6.96 l5.48 0 l0.02 -6.96 l1.18 0 l0 15 l-1.18 0 z M172.29600000000005 20 l-1.1 -4.42 l-4.88 0 l-1.1 4.42 l-1 0 l4.14 -15 l0.86 0 l4.12 15 l-1.04 0 z M168.81600000000003 5.9399999999999995 l-2.26 8.68 l4.38 0 z M183.55450000000005 20 l-5.8 -12.88 l0 12.88 l-1.1 0 l0 -15 l1.18 0 l5.8 12.3 l0.14 -12.3 l1.08 0 l0 15 l-1.3 0 z M196.37300000000005 20 l-1.1 -4.42 l-4.88 0 l-1.1 4.42 l-1 0 l4.14 -15 l0.86 0 l4.12 15 l-1.04 0 z M192.89300000000003 5.9399999999999995 l-2.26 8.68 l4.38 0 z M200.51150000000004 20 l0 -15 l1.08 0 l0 13.92 l5.1 0 l0 1.08 l-6.18 0 z M212.45000000000005 13.14 l0 6.86 l-1.08 0 l0 -6.86 l-3.62 -8.14 l1.24 0 l2.9 6.94 l2.94 -6.94 l1.24 0 z M223.44850000000002 6.1 l0 13.9 l-1.16 0 l0 -13.9 l-3.26 0 l0 -1.1 l7.68 0 l0 1.1 l-3.26 0 z M230.14700000000005 20 l0 -15 l1.28 0 l0 15 l-1.28 0 z M242.32550000000003 16.22 c-0.01334 0.66666 -0.076582 1.25 -0.18992 1.75 s-0.30668 0.91334 -0.58002 1.24 s-0.63334 0.57 -1.08 0.73 s-1.01 0.24 -1.69 0.24 c-1.1733 0 -2.0266 -0.32666 -2.56 -0.98 s-0.8 -1.6467 -0.8 -2.98 l0 -7.4 c0 -1.3333 0.27 -2.3266 0.81 -2.98 s1.4633 -0.98 2.77 -0.98 c1.1733 0 2.0134 0.32666 2.52 0.98 s0.77332 1.6467 0.79998 2.98 l0.02 0.92 l-0.92 0 l-0.02 -1.16 c0 -0.33334 -0.03334 -0.67 -0.1 -1.01 s-0.18666 -0.65 -0.36 -0.93 s-0.41668 -0.50666 -0.73002 -0.68 s-0.73 -0.26 -1.25 -0.26 c-0.50666 0 -0.93 0.08 -1.27 0.24 s-0.61 0.38 -0.81 0.66 s-0.33666 0.61 -0.41 0.99 s-0.11 0.79 -0.11 1.23 l0.04 7.5 c0 0.92 0.17 1.64 0.51 2.16 s0.96334 0.78 1.87 0.78 c0.52 0 0.95 -0.07 1.29 -0.21 s0.60666 -0.33666 0.8 -0.59 s0.33 -0.56 0.41 -0.92 s0.12 -0.75334 0.12 -1.18 l0.02 -1.3 l0.92 0 z M250.60400000000004 20.18 c-0.65334 0 -1.2335 -0.086738 -1.7401 -0.26008 s-0.93332 -0.45 -1.28 -0.83 s-0.60332 -0.87666 -0.76998 -1.49 s-0.23666 -1.3533 -0.21 -2.22 l1.2 0 c0 0.42666 0.02 0.87 0.06 1.33 s0.14666 0.88 0.32 1.26 s0.43668 0.69 0.79002 0.93 s0.84334 0.36 1.47 0.36 c0.53334 0 0.98668 -0.08 1.36 -0.24 s0.67668 -0.37334 0.91002 -0.64 s0.39668 -0.58 0.49002 -0.94 s0.14 -0.73334 0.14 -1.12 c0 -0.45334 -0.08334 -0.85 -0.25 -1.19 s-0.38666 -0.64334 -0.66 -0.91 s-0.59334 -0.50332 -0.96 -0.70998 s-0.75 -0.39 -1.15 -0.55 c-0.64 -0.25334 -1.2 -0.50334 -1.68 -0.75 s-0.87334 -0.52332 -1.18 -0.82998 s-0.53666 -0.66332 -0.69 -1.07 s-0.23 -0.90332 -0.23 -1.49 c0 -1.3333 0.35 -2.3266 1.05 -2.98 s1.7033 -0.98 3.01 -0.98 c1.1333 0 2.03 0.33 2.69 0.99 s0.99 1.65 0.99 2.97 l0 1.1 l-1.12 0 l0 -1.2 c0 -0.41334 -0.05 -0.79668 -0.15 -1.15 s-0.25666 -0.66334 -0.47 -0.93 s-0.48334 -0.47666 -0.81 -0.63 s-0.71666 -0.23 -1.17 -0.23 c-1.0667 0 -1.83 0.28 -2.29 0.84 s-0.67 1.3133 -0.63 2.26 c0.01334 0.41334 0.09 0.76668 0.23 1.06 s0.32666 0.55 0.56 0.77 s0.51334 0.41666 0.84 0.59 s0.69 0.34668 1.09 0.52002 c0.46666 0.2 0.93 0.41334 1.39 0.64 s0.89 0.50666 1.29 0.84 c0.4 0.34666 0.73 0.75 0.99 1.21 s0.39 1.03 0.39 1.71 c0 1.32 -0.33666 2.31 -1.01 2.97 s-1.61 0.99 -2.81 0.99 z"/></g>
			</g>
		</svg>
	